# xmcd
#
# Track frame offsets:
#	150
#	14411
#	36496
#	51191
#	69819
#	89501
#	109438
#	133295
#	155159
#	176538
#	193034
#	210716
#	227267
#	249262
#
# Disc length: 3671 seconds
#
# Revision: 0
# Processed by: cddbd v1.5.2PL0 Copyright (c) Steve Scherf et al.
# Submitted via: EasyCDDAExtractor 16.0.6.1
#
DISCID=c50e550e
DTITLE=Λεοντίδης Κώστας - Τραγουδίσματα και μουσικές της Ηπείρου
DYEAR=2000
DGENRE=Παραδοσιακή
TTITLE0=Λεοντίδης Κώστας - Εμπάτε αγόρια στο χορό
TTITLE1=Λεοντίδης Κώστας - Δεροπολίτισσα
TTITLE2=Λεοντίδης Κώστας - Το φεγγάρι κάνει κύκλο
TTITLE3=Λεοντίδης Κώστας - Αρχοντόπουλο
TTITLE4=Λεοντίδης Κώστας - Αλεξάνδρα
TTITLE5=Λεοντίδης Κώστας - Τρία μπαϊράκια
TTITLE6=Άνευ ερμηνευτού - Λιασκοβίκος [ορχηστρικό, σόλο]
TTITLE7=Λεοντίδης Κώστας - Την άμμο-άμμο πήγαινα
TTITLE8=Λεοντίδης Κώστας - Παπαδοπούλα
TTITLE9=Λεοντίδης Κώστας - Μη με κοιτάς στα μάτια
TTITLE10=Λεοντίδης Κώστας - Από τα γλαρά σου μάτια
TTITLE11=Λεοντίδης Κώστας - Σιδεροβέργινο κλουβί
TTITLE12=Λεοντίδης Κώστας - Στης πικροδάφνης τον ανθό
TTITLE13=Άνευ ερμηνευτού - Ήλιος- Παλιά ιτιά [ορχηστρικό, σόλο]
EXTD=
EXTT0=
EXTT1=
EXTT2=
EXTT3=
EXTT4=
EXTT5=
EXTT6=
EXTT7=
EXTT8=
EXTT9=
EXTT10=
EXTT11=
EXTT12=
EXTT13=
PLAYORDER=
